<svg xmlns="http://www.w3.org/2000/svg" viewBox="0 0 420 560" width="420" height="560" role="img" aria-labelledby="fig-title-ex-wrist-01">
  <title id="fig-title-ex-wrist-01">Wrist Flexion — movement figure</title>
  <desc>Schematic movement figure. Slowly curl your wrist upward.  The range is whatever the words describe, not what this drawing shows.</desc>
  <style>
    .mv { will-change: transform; }
    @keyframes mv-handL {
      0% { transform: rotate(0deg); }
      41% { transform: rotate(-80deg); }
      53.3% { transform: rotate(-80deg); }
      94.3% { transform: rotate(0deg); }
      100% { transform: rotate(0deg); }
    }
    /* Reduced motion and print both fall back to the two states, which say the same
       thing without moving: the faded body is where it starts, the solid outline and
       the arc are where it ends. */
    @media (prefers-reduced-motion: reduce), print {
      .live { display: none; }
      .end { opacity: 1 !important; }
    }
  </style>
  <rect width="420" height="560" fill="#FFFFFF" />
  <g transform="translate(51.5 87.5) scale(0.9)">
    <path d="M40.3 339 L321.8 339" stroke="#E2E5EB" stroke-width="9" stroke-linecap="round" fill="none" />
    <path d="M127.3 60.5 L327.8 60.5" stroke="#E2E5EB" stroke-width="9" stroke-linecap="round" fill="none" />
    <path d="M311.8 60.5 L311.8 339" stroke="#E2E5EB" stroke-width="9" stroke-linecap="round" fill="none" />
    <g class="ghost">
      <path d="M104 210 L104 36" stroke="#C9CFDA" stroke-opacity="0.95" stroke-width="26" stroke-linecap="round" fill="none" />
      <circle cx="104" cy="6" r="24.6" fill="#C9CFDA" opacity="0.95" />
      <path d="M99 36 L192.3 52.5" stroke="#C9CFDA" stroke-opacity="0.95" stroke-width="13" stroke-linecap="round" fill="none" />
      <path d="M187.3 52.5 L273.5 55.5" stroke="#C9CFDA" stroke-opacity="0.95" stroke-width="11" stroke-linecap="round" fill="none" />
      <path d="M268.5 55.5 L287.8 95.1" stroke="#C9CFDA" stroke-opacity="0.95" stroke-width="10" stroke-linecap="round" fill="none" />
      <path d="M109 36 L95.8 129.8" stroke="#C9CFDA" stroke-opacity="0.95" stroke-width="13" stroke-linecap="round" fill="none" />
      <path d="M100.8 129.8 L80 213.5" stroke="#C9CFDA" stroke-opacity="0.95" stroke-width="11" stroke-linecap="round" fill="none" />
      <path d="M85 213.5 L74.3 256.3" stroke="#C9CFDA" stroke-opacity="0.95" stroke-width="10" stroke-linecap="round" fill="none" />
      <path d="M99 210 L238.7 219.8" stroke="#C9CFDA" stroke-opacity="0.95" stroke-width="17" stroke-linecap="round" fill="none" />
      <path d="M233.7 219.8 L237.5 329.7" stroke="#C9CFDA" stroke-opacity="0.95" stroke-width="14" stroke-linecap="round" fill="none" />
      <path d="M232.5 329.7 L196.5 331" stroke="#C9CFDA" stroke-opacity="0.95" stroke-width="11" stroke-linecap="round" fill="none" />
      <path d="M109 210 L248.7 219.8" stroke="#C9CFDA" stroke-opacity="0.95" stroke-width="17" stroke-linecap="round" fill="none" />
      <path d="M253.7 219.8 L257.5 329.7" stroke="#C9CFDA" stroke-opacity="0.95" stroke-width="14" stroke-linecap="round" fill="none" />
      <path d="M262.5 329.7 L226.5 331" stroke="#C9CFDA" stroke-opacity="0.95" stroke-width="11" stroke-linecap="round" fill="none" />
    </g>
    <g class="end" opacity="0.62">
      <path d="M104 210 L104 36" stroke="#1D4ED8" stroke-opacity="0.72" stroke-width="26" stroke-linecap="round" fill="none" />
      <circle cx="104" cy="6" r="24.6" fill="#1D4ED8" opacity="0.72" />
      <path d="M99 36 L192.3 52.5" stroke="#1D4ED8" stroke-opacity="0.72" stroke-width="13" stroke-linecap="round" fill="none" />
      <path d="M187.3 52.5 L273.5 55.5" stroke="#1D4ED8" stroke-opacity="0.72" stroke-width="11" stroke-linecap="round" fill="none" />
      <path d="M268.5 55.5 L287.8 95.1" stroke="#1D4ED8" stroke-opacity="0.72" stroke-width="10" stroke-linecap="round" fill="none" />
      <path d="M109 36 L95.8 129.8" stroke="#1D4ED8" stroke-opacity="0.72" stroke-width="13" stroke-linecap="round" fill="none" />
      <path d="M100.8 129.8 L80 213.5" stroke="#1D4ED8" stroke-opacity="0.72" stroke-width="11" stroke-linecap="round" fill="none" />
      <path d="M85 213.5 L74.3 256.3" stroke="#1D4ED8" stroke-opacity="0.72" stroke-width="10" stroke-linecap="round" fill="none" />
      <path d="M99 210 L238.7 219.8" stroke="#1D4ED8" stroke-opacity="0.72" stroke-width="17" stroke-linecap="round" fill="none" />
      <path d="M233.7 219.8 L237.5 329.7" stroke="#1D4ED8" stroke-opacity="0.72" stroke-width="14" stroke-linecap="round" fill="none" />
      <path d="M232.5 329.7 L196.5 331" stroke="#1D4ED8" stroke-opacity="0.72" stroke-width="11" stroke-linecap="round" fill="none" />
      <path d="M109 210 L248.7 219.8" stroke="#1D4ED8" stroke-opacity="0.72" stroke-width="17" stroke-linecap="round" fill="none" />
      <path d="M253.7 219.8 L257.5 329.7" stroke="#1D4ED8" stroke-opacity="0.72" stroke-width="14" stroke-linecap="round" fill="none" />
      <path d="M262.5 329.7 L226.5 331" stroke="#1D4ED8" stroke-opacity="0.72" stroke-width="11" stroke-linecap="round" fill="none" />
    </g>
    <g class="focus">
      <circle cx="273.5" cy="55.5" r="21" fill="rgba(240, 190, 110, 0.45)" />
      <circle cx="287.8" cy="95.1" r="21" fill="rgba(240, 190, 110, 0.45)" />
      
      
    </g>
    <path d="M287.8 95.1 L287.8 95.1" stroke="#1D4ED8" stroke-width="3" stroke-dasharray="7 6" fill="none" opacity="0.85" />
    <path d="M287.8 95.1 L280.1 99.7 M287.8 95.1 L280.1 90.5" stroke="#1D4ED8" stroke-width="3" stroke-linecap="round" fill="none" opacity="0.85" />
    <g class="live">
      <g><path d="M104 210 L104 36" stroke="#ADB5C2" stroke-width="26" stroke-linecap="round" fill="none" /><g><circle cx="104" cy="6" r="24.6" fill="#ADB5C2" /></g><g><path d="M99 36 L192.3 52.5" stroke="#ADB5C2" stroke-width="13" stroke-linecap="round" fill="none" /><g><path d="M187.3 52.5 L273.5 55.5" stroke="#ADB5C2" stroke-width="11" stroke-linecap="round" fill="none" /><g class="mv" style="transform-origin:268.5px 55.5px;transform-box:view-box;animation:mv-handL 4.4s linear infinite"><path d="M268.5 55.5 L287.8 95.1" stroke="#5A6473" stroke-width="10" stroke-linecap="round" fill="none" /></g></g></g><g><path d="M109 36 L95.8 129.8" stroke="#ADB5C2" stroke-width="13" stroke-linecap="round" fill="none" /><g><path d="M100.8 129.8 L80 213.5" stroke="#ADB5C2" stroke-width="11" stroke-linecap="round" fill="none" /><g><path d="M85 213.5 L74.3 256.3" stroke="#ADB5C2" stroke-width="10" stroke-linecap="round" fill="none" /></g></g></g><g><path d="M99 210 L238.7 219.8" stroke="#ADB5C2" stroke-width="17" stroke-linecap="round" fill="none" /><g><path d="M233.7 219.8 L237.5 329.7" stroke="#ADB5C2" stroke-width="14" stroke-linecap="round" fill="none" /><g><path d="M232.5 329.7 L196.5 331" stroke="#ADB5C2" stroke-width="11" stroke-linecap="round" fill="none" /></g></g></g><g><path d="M109 210 L248.7 219.8" stroke="#ADB5C2" stroke-width="17" stroke-linecap="round" fill="none" /><g><path d="M253.7 219.8 L257.5 329.7" stroke="#ADB5C2" stroke-width="14" stroke-linecap="round" fill="none" /><g><path d="M262.5 329.7 L226.5 331" stroke="#ADB5C2" stroke-width="11" stroke-linecap="round" fill="none" /></g></g></g></g>
    </g>
  </g>
  <g font-family="system-ui, -apple-system, Segoe UI, sans-serif">
    <text x="22" y="30" font-size="19" font-weight="600" fill="#111827">Wrist Flexion</text>
    <text x="22" y="50" font-size="13" fill="#6B7280">Schematic drawn from the words below — not a photograph</text>
    <text x="22" y="506" font-size="14" fill="#4B5563">Slowly curl your wrist upward.</text>
    <text x="22" y="521" font-size="12" fill="#6B7280">Range: as far as the words say. The picture shows which</text>
    <text x="22" y="536" font-size="12" fill="#6B7280">joint moves, not how far.</text>
  </g>
</svg>
