<svg xmlns="http://www.w3.org/2000/svg" width="128" height="128" viewBox="0 0 128 128">
  <rect width="128" height="128" rx="28" fill="#0ea5e9"/>
  <g transform="translate(42.7 9) scale(0.1774)"><path d="M120 20 C137 20 151 36 151 57 C151 79 137 94 120 94 C103 94 89 79 89 57 C89 36 103 20 120 20 Z" fill="#FFFFFF"/><path d="M74 134 C96 124 144 124 166 134 L170 182 L158 238 L162 268 L160 300 C150 314 90 314 80 300 L78 268 L82 238 L70 182 Z" fill="#FFFFFF"/><path d="M120 96 L120 122" stroke="#FFFFFF" stroke-width="32" stroke-linecap="round" fill="none"/><path d="M58 134 L46 228" stroke="#FFFFFF" stroke-width="30" stroke-linecap="round" fill="none"/><path d="M182 134 L194 228" stroke="#FFFFFF" stroke-width="30" stroke-linecap="round" fill="none"/><path d="M46 228 L40 314" stroke="#FFFFFF" stroke-width="24" stroke-linecap="round" fill="none"/><path d="M194 228 L200 314" stroke="#FFFFFF" stroke-width="24" stroke-linecap="round" fill="none"/><path d="M40 314 L37 358" stroke="#FFFFFF" stroke-width="22" stroke-linecap="round" fill="none"/><path d="M200 314 L203 358" stroke="#FFFFFF" stroke-width="22" stroke-linecap="round" fill="none"/><path d="M96 302 L94 442" stroke="#FFFFFF" stroke-width="44" stroke-linecap="round" fill="none"/><path d="M144 302 L146 442" stroke="#FFFFFF" stroke-width="44" stroke-linecap="round" fill="none"/><path d="M94 442 L93 552" stroke="#FFFFFF" stroke-width="32" stroke-linecap="round" fill="none"/><path d="M146 442 L147 552" stroke="#FFFFFF" stroke-width="32" stroke-linecap="round" fill="none"/><path d="M93 552 L68 578" stroke="#FFFFFF" stroke-width="21" stroke-linecap="round" fill="none"/><path d="M147 552 L172 578" stroke="#FFFFFF" stroke-width="21" stroke-linecap="round" fill="none"/></g>
</svg>
